<?xml version="1.0" encoding="utf-8"?>
<!-- Created by sK1 2.0rc5 (https://sk1project.net/) -->
<svg xmlns="http://www.w3.org/2000/svg" height="841.88976378pt" viewBox="0 0 595.275590551 841.88976378" width="595.275590551pt" version="1.1" xmlns:xlink="http://www.w3.org/1999/xlink" id="4cf0df6e-f238-11f0-a162-08002793bb7b">

<g>
	<g>
		<g>
			<path style="fill-rule:evenodd;fill:#cc6666;" d="M 65.2349,186.6848 L 67.577,128.1338 83.9714,128.1338 96.8527,159.7518 100.366,131.6468 113.247,131.6468 110.905,187.8558 93.3396,187.8558 81.6293,156.2388 78.1162,189.0268 65.2349,186.6848 Z" />
			<path style="fill-rule:evenodd;fill:#cccc66;" d="M 121.444,132.8178 L 123.786,184.3428 139.01,184.3428 135.497,131.6468 121.444,132.8178 Z" />
			<path style="fill-rule:evenodd;fill:#66cc66;" d="M 147.207,131.6468 L 147.207,186.6848 161.259,187.8558 161.259,166.7778 176.483,166.7778 174.141,155.0678 161.259,155.0678 162.43,146.8698 182.338,145.6988 182.338,133.9888 147.207,131.6468 Z" />
			<path style="fill-rule:evenodd;fill:#6565c9;" d="M 190.535,135.1598 L 191.706,189.0268 206.929,187.8558 206.929,169.1198 224.495,189.0268 233.863,179.6588 217.469,159.7518 230.35,141.0148 219.811,133.9888 205.758,155.0678 204.587,135.1598 190.535,135.1598 Z" />
			<path style="fill-rule:evenodd;fill:#cc66cc;" d="M 238.547,135.1598 L 254.942,135.1598 256.113,189.0268 240.889,189.0268 238.547,135.1598 Z" />
		</g>
		<g>
			<path style="stroke:#000000;fill-rule:evenodd;stroke-miterlimit:10.0;fill:#ff0000;" d="M 62.4378,182.5518 L 64.8388,122.5278 81.6457,122.5278 94.8511,154.9408 98.4525,126.1288 111.658,126.1288 109.257,183.7518 91.2496,183.7518 79.2447,151.3388 75.6432,184.9528 62.4378,182.5518 Z" />
			<path style="stroke:#000000;fill-rule:evenodd;stroke-miterlimit:10.0;fill:#ffff00;" d="M 120.061,127.3298 L 122.462,180.1508 138.069,180.1508 134.467,126.1288 120.061,127.3298 Z" />
			<path style="stroke:#000000;fill-rule:evenodd;stroke-miterlimit:10.0;fill:#00ff00;" d="M 146.472,126.1288 L 146.472,182.5518 160.878,183.7518 160.878,162.1438 176.484,162.1438 174.083,150.1388 160.878,150.1388 162.078,141.7348 182.487,140.5348 182.487,128.5298 146.472,126.1288 Z" />
			<path style="stroke:#000000;fill-rule:evenodd;stroke-miterlimit:10.0;fill:#0000ff;" d="M 190.89,129.7308 L 192.091,184.9528 207.697,183.7518 207.697,164.5448 225.704,184.9528 235.308,175.3488 218.501,154.9408 231.707,135.7328 220.902,128.5298 206.497,150.1388 205.296,129.7308 190.89,129.7308 Z" />
			<path style="stroke:#000000;fill-rule:evenodd;stroke-miterlimit:10.0;fill:#ff00ff;" d="M 240.11,129.7308 L 256.917,129.7308 258.118,184.9528 242.511,184.9528 240.11,129.7308 Z" />
		</g>
	</g>
	<g>
		<path style="fill-rule:evenodd;fill:#cc6666;" d="M 50.0246,109.9878 L 52.676,43.7038 71.2357,43.7038 85.8184,79.4968 89.7954,47.6808 104.378,47.6808 101.727,111.3138 81.8413,111.3138 68.5843,75.5198 64.6073,112.6398 50.0246,109.9878 Z" />
		<path style="fill-rule:evenodd;fill:#cccc66;" d="M 113.658,49.0058 L 116.309,107.3368 133.543,107.3368 129.566,47.6808 113.658,49.0058 Z" />
		<path style="fill-rule:evenodd;fill:#66cc66;" d="M 142.823,47.6808 L 142.823,109.9878 158.732,111.3138 158.732,87.4518 175.966,87.4518 173.314,74.1948 158.732,74.1948 160.057,64.9148 182.594,63.5888 182.594,50.3318 142.823,47.6808 Z" />
		<path style="fill-rule:evenodd;fill:#6565c9;" d="M 191.874,51.6578 L 193.2,112.6398 210.434,111.3138 210.434,90.1028 230.319,112.6398 240.925,102.0338 222.365,79.4968 236.947,58.2858 225.016,50.3318 209.108,74.1948 207.782,51.6578 191.874,51.6578 Z" />
		<path style="fill-rule:evenodd;fill:#cc66cc;" d="M 246.227,51.6578 L 264.787,51.6578 266.113,112.6398 248.879,112.6398 246.227,51.6578 Z" />
	</g>
	<g>
		<path style="stroke:#000000;fill-rule:evenodd;stroke-miterlimit:10.0;fill:#ff0000;" d="M 59.2325,98.1218 L 61.6334,38.0968 78.4403,38.0968 91.6457,70.5098 95.2471,41.6988 108.453,41.6988 106.052,99.3218 88.0442,99.3218 76.0393,66.9088 72.4378,100.5228 59.2325,98.1218 Z" />
		<path style="stroke:#000000;fill-rule:evenodd;stroke-miterlimit:10.0;fill:#ffff00;" d="M 116.856,42.8988 L 119.257,95.7208 134.863,95.7208 131.262,41.6988 116.856,42.8988 Z" />
		<path style="stroke:#000000;fill-rule:evenodd;stroke-miterlimit:10.0;fill:#00ff00;" d="M 143.267,41.6988 L 143.267,98.1218 157.673,99.3218 157.673,77.7128 173.279,77.7128 170.878,65.7088 157.673,65.7088 158.873,57.3048 179.281,56.1048 179.281,44.0998 143.267,41.6988 Z" />
		<path style="stroke:#000000;fill-rule:evenodd;stroke-miterlimit:10.0;fill:#0000ff;" d="M 187.685,45.2998 L 188.885,100.5228 204.492,99.3218 204.492,80.1138 222.499,100.5228 232.103,90.9188 215.296,70.5098 228.501,51.3028 217.697,44.0998 203.291,65.7088 202.091,45.2998 187.685,45.2998 Z" />
		<path style="stroke:#000000;fill-rule:evenodd;stroke-miterlimit:10.0;fill:#ff00ff;" d="M 236.905,45.2998 L 253.712,45.2998 254.912,100.5228 239.306,100.5228 236.905,45.2998 Z" />
	</g>
	<g>
		<g>
			<path style="fill-rule:evenodd;fill:#ff3030;" d="M 304.528,112.3738 L 307.371,41.3028 327.271,41.3028 342.907,79.6808 347.172,45.5668 362.807,45.5668 359.964,113.7958 338.643,113.7958 324.428,75.4168 320.164,115.2168 304.528,112.3738 Z" />
			<path style="fill-rule:evenodd;fill:#eeee00;" d="M 372.757,46.9878 L 375.6,109.5318 394.079,109.5318 389.815,45.5668 372.757,46.9878 Z" />
			<path style="fill-rule:evenodd;fill:#7ccd7c;" d="M 404.029,45.5668 L 404.029,112.3738 421.086,113.7958 421.086,88.2098 439.565,88.2098 436.722,73.9958 421.086,73.9958 422.508,64.0458 446.672,62.6238 446.672,48.4098 404.029,45.5668 Z" />
			<path style="fill-rule:evenodd;fill:#6565c9;" d="M 456.622,49.8308 L 458.044,115.2168 476.522,113.7958 476.522,91.0528 497.844,115.2168 509.215,103.8458 489.315,79.6808 504.951,56.9378 492.158,48.4098 475.101,73.9958 473.68,49.8308 456.622,49.8308 Z" />
			<path style="fill-rule:evenodd;fill:#d15fee;" d="M 514.901,49.8308 L 534.801,49.8308 536.223,115.2168 517.744,115.2168 514.901,49.8308 Z" />
		</g>
		<path style="stroke:#000000;fill-rule:evenodd;stroke-miterlimit:10.0;fill:#ff0000;" d="M 304.132,105.3248 L 306.533,45.2998 323.34,45.2998 336.546,77.7128 340.147,48.9018 353.352,48.9018 350.951,106.5248 332.944,106.5248 320.939,74.1118 317.338,107.7258 304.132,105.3248 Z" />
		<path style="stroke:#000000;fill-rule:evenodd;stroke-miterlimit:10.0;fill:#ffff00;" d="M 371.36,50.1018 L 373.761,102.9238 389.367,102.9238 385.766,48.9018 371.36,50.1018 Z" />
		<path style="stroke:#000000;fill-rule:evenodd;stroke-miterlimit:10.0;fill:#00ff00;" d="M 400.171,46.4998 L 400.171,102.9238 414.577,104.1238 414.577,82.5148 430.184,82.5148 427.783,70.5098 414.577,70.5098 415.778,62.1068 436.186,60.9058 436.186,48.9008 400.171,46.4998 Z" />
		<path style="stroke:#000000;fill-rule:evenodd;stroke-miterlimit:10.0;fill:#0000ff;" d="M 452.993,51.3028 L 454.193,106.5248 469.8,105.3248 469.8,86.1168 487.807,106.5248 497.411,96.9208 480.604,76.5128 493.81,57.3048 483.005,50.1018 468.599,71.7108 467.399,51.3028 452.993,51.3028 Z" />
		<path style="stroke:#000000;fill-rule:evenodd;stroke-miterlimit:10.0;fill:#ff00ff;" d="M 511.817,50.1018 L 528.624,50.1018 529.824,105.3248 514.218,105.3248 511.817,50.1018 Z" />
	</g>
	<g>
		<g>
			<path style="fill-rule:evenodd;fill:#ff3030;" d="M 302.523,196.0128 L 305.366,124.9408 325.266,124.9408 340.902,163.3198 345.167,129.2048 360.802,129.2048 357.96,197.4338 336.638,197.4338 322.424,159.0548 318.159,198.8548 302.523,196.0128 Z" />
			<path style="fill-rule:evenodd;fill:#eeee00;" d="M 370.753,130.6258 L 373.595,193.1698 392.074,193.1698 387.81,129.2048 370.753,130.6258 Z" />
			<path style="fill-rule:evenodd;fill:#7ccd7c;" d="M 402.024,129.2048 L 402.024,196.0128 419.081,197.4338 419.081,171.8478 437.56,171.8478 434.717,157.6338 419.081,157.6338 420.503,147.6838 444.667,146.2618 444.667,132.0478 402.024,129.2048 Z" />
			<path style="fill-rule:evenodd;fill:#6565c9;" d="M 454.617,133.4688 L 456.039,198.8548 474.518,197.4338 474.518,174.6908 495.839,198.8548 507.211,187.4838 487.31,163.3198 502.946,140.5768 490.153,132.0478 473.096,157.6338 471.675,133.4688 454.617,133.4688 Z" />
			<path style="fill-rule:evenodd;fill:#d15fee;" d="M 512.896,133.4688 L 532.797,133.4688 534.218,198.8548 515.739,198.8548 512.896,133.4688 Z" />
		</g>
		<path style="stroke:#000000;stroke-miterlimit:10.0;fill:none;" d="M 302.127,188.9628 L 304.528,128.9378 321.335,128.9378 334.541,161.3508 338.142,132.5398 351.348,132.5398 348.947,190.1628 330.939,190.1628 318.934,157.7498 315.333,191.3638 302.127,188.9628 Z" />
		<path style="stroke:#000000;stroke-miterlimit:10.0;fill:none;" d="M 369.355,133.7398 L 371.756,186.5618 387.362,186.5618 383.761,132.5398 369.355,133.7398 Z" />
		<path style="stroke:#000000;stroke-miterlimit:10.0;fill:none;" d="M 398.167,130.1388 L 398.167,186.5618 412.572,187.7618 412.572,166.1528 428.179,166.1528 425.778,154.1478 412.572,154.1478 413.773,145.7448 434.181,144.5438 434.181,132.5398 398.167,130.1388 Z" />
		<path style="stroke:#000000;stroke-miterlimit:10.0;fill:none;" d="M 450.988,134.9408 L 452.189,190.1628 467.795,188.9628 467.795,169.7548 485.802,190.1628 495.406,180.5588 478.599,160.1508 491.805,140.9428 481.0,133.7398 466.594,155.3488 465.394,134.9408 450.988,134.9408 Z" />
		<path style="stroke:#000000;stroke-miterlimit:10.0;fill:none;" d="M 509.812,133.7398 L 526.619,133.7398 527.819,188.9628 512.213,188.9628 509.812,133.7398 Z" />
	</g>
	<g>
		<g>
			<path style="stroke-linejoin:round;fill-rule:evenodd;stroke:#800000;stroke-miterlimit:10.0;stroke-width:5.0;fill:#ff0000;" d="M 62.2337,267.1928 L 64.6346,207.1678 81.4415,207.1678 94.6469,239.5808 98.2484,210.7698 111.454,210.7698 109.053,268.3928 91.0454,268.3928 79.0405,235.9798 75.4391,269.5938 62.2337,267.1928 Z" />
			<path style="stroke-linejoin:round;fill-rule:evenodd;stroke:#7f8000;stroke-miterlimit:10.0;stroke-width:5.0;fill:#ffff00;" d="M 119.857,211.9698 L 122.258,264.7918 137.865,264.7918 134.263,210.7698 119.857,211.9698 Z" />
			<path style="stroke-linejoin:round;fill-rule:evenodd;stroke:#008000;stroke-miterlimit:10.0;stroke-width:5.0;fill:#00ff00;" d="M 146.268,210.7698 L 146.268,267.1928 160.674,268.3928 160.674,246.7838 176.28,246.7838 173.879,234.7788 160.674,234.7788 161.874,226.3758 182.283,225.1758 182.283,213.1708 146.268,210.7698 Z" />
			<path style="stroke-linejoin:round;fill-rule:evenodd;stroke:#000080;stroke-miterlimit:10.0;stroke-width:5.0;fill:#0000ff;" d="M 190.686,214.3708 L 191.887,269.5938 207.493,268.3928 207.493,249.1848 225.5,269.5938 235.104,259.9898 218.297,239.5808 231.503,220.3738 220.698,213.1708 206.292,234.7788 205.092,214.3708 190.686,214.3708 Z" />
			<path style="stroke-linejoin:round;fill-rule:evenodd;stroke:#7f0080;stroke-miterlimit:10.0;stroke-width:5.0;fill:#ff00ff;" d="M 239.906,214.3708 L 256.713,214.3708 257.913,269.5938 242.307,269.5938 239.906,214.3708 Z" />
		</g>
		<g>
			<path style="fill-rule:evenodd;fill:#ff0000;" d="M 63.4342,265.9918 L 65.8352,205.9678 82.642,205.9678 95.8474,238.3808 99.4489,209.5688 112.654,209.5688 110.253,267.1928 92.2459,267.1928 80.241,234.7788 76.6396,268.3928 63.4342,265.9918 Z" />
			<path style="fill-rule:evenodd;fill:#ffff00;" d="M 121.058,210.7698 L 123.459,263.5908 139.065,263.5908 135.464,209.5688 121.058,210.7698 Z" />
			<path style="fill-rule:evenodd;fill:#00ff00;" d="M 147.468,209.5688 L 147.468,265.9918 161.874,267.1928 161.874,245.5838 177.481,245.5838 175.08,233.5788 161.874,233.5788 163.075,225.1748 183.483,223.9748 183.483,211.9698 147.468,209.5688 Z" />
			<path style="fill-rule:evenodd;fill:#0000ff;" d="M 191.887,213.1708 L 193.087,268.3928 208.693,267.1928 208.693,247.9848 226.701,268.3928 236.305,258.7888 219.498,238.3808 232.703,219.1728 221.899,211.9698 207.493,233.5788 206.292,213.1708 191.887,213.1708 Z" />
			<path style="fill-rule:evenodd;fill:#ff00ff;" d="M 241.107,213.1708 L 257.913,213.1708 259.114,268.3928 243.508,268.3928 241.107,213.1708 Z" />
		</g>
	</g>
	<g>
		<g>
			<path style="stroke-linejoin:round;fill-rule:evenodd;stroke:#7f0080;stroke-miterlimit:10.0;stroke-width:10.0;fill:#ff00ff;" d="M 238.898,287.4088 L 255.704,287.4088 256.905,342.6318 241.299,342.6318 238.898,287.4088 Z" />
			<path style="fill-rule:evenodd;fill:#ff00ff;" d="M 240.098,285.0078 L 256.905,285.0078 258.105,340.2308 242.499,340.2308 240.098,285.0078 Z" />
		</g>
		<g>
			<path style="stroke-linejoin:round;fill-rule:evenodd;stroke:#000080;stroke-miterlimit:10.0;stroke-width:10.0;fill:#0000ff;" d="M 189.677,287.4088 L 190.878,342.6318 206.484,341.4308 206.484,322.2228 224.492,342.6318 234.096,333.0278 217.289,312.6188 230.494,293.4108 219.69,286.2088 205.284,307.8168 204.083,287.4088 189.677,287.4088 Z" />
			<path style="fill-rule:evenodd;fill:#0000ff;" d="M 190.878,285.0078 L 192.078,340.2308 207.685,339.0298 207.685,319.8218 225.692,340.2308 235.296,330.6268 218.489,310.2178 231.695,291.0108 220.89,283.8078 206.484,305.4158 205.284,285.0078 190.878,285.0078 Z" />
		</g>
		<g>
			<path style="stroke-linejoin:round;fill-rule:evenodd;stroke:#008000;stroke-miterlimit:10.0;stroke-width:10.0;fill:#00ff00;" d="M 145.259,283.8078 L 145.259,340.2308 159.665,341.4308 159.665,319.8218 175.272,319.8218 172.871,307.8168 159.665,307.8168 160.866,299.4138 181.274,298.2128 181.274,286.2088 145.259,283.8078 Z" />
			<path style="fill-rule:evenodd;fill:#00ff00;" d="M 146.46,281.4068 L 146.46,337.8298 160.866,339.0298 160.866,317.4208 176.472,317.4208 174.071,305.4158 160.866,305.4158 162.066,297.0128 182.475,295.8128 182.475,283.8078 146.46,281.4068 Z" />
		</g>
		<g>
			<path style="stroke-linejoin:round;fill-rule:evenodd;stroke:#7f8000;stroke-miterlimit:10.0;stroke-width:10.0;fill:#ffff00;" d="M 118.849,285.0078 L 121.25,337.8298 136.856,337.8298 133.254,283.8078 118.849,285.0078 Z" />
			<path style="fill-rule:evenodd;fill:#ffff00;" d="M 120.049,282.6068 L 122.45,335.4288 138.056,335.4288 134.455,281.4068 120.049,282.6068 Z" />
		</g>
		<g>
			<path style="stroke-linejoin:round;fill-rule:evenodd;stroke:#800000;stroke-miterlimit:10.0;stroke-width:10.0;fill:#ff0000;" d="M 61.2251,340.2308 L 63.6261,280.2058 80.433,280.2058 93.6383,312.6188 97.2398,283.8078 110.445,283.8078 108.044,341.4308 90.0369,341.4308 78.032,309.0178 74.4305,342.6318 61.2251,340.2308 Z" />
			<path style="fill-rule:evenodd;fill:#ff0000;" d="M 62.4256,337.8298 L 64.8266,277.8048 81.6334,277.8048 94.8388,310.2178 98.4403,281.4068 111.646,281.4068 109.245,339.0298 91.2374,339.0298 79.2325,306.6168 75.631,340.2308 62.4256,337.8298 Z" />
		</g>
	</g>
	<g>
		<path style="stroke-linejoin:round;fill-rule:evenodd;stroke:#7f0080;stroke-miterlimit:10.0;stroke-width:10.0;fill:#ff00ff;" d="M 498.191,224.5918 L 514.998,224.5918 516.198,279.8138 500.592,279.8138 498.191,224.5918 Z" />
		<path style="stroke-linejoin:round;fill-rule:evenodd;stroke:#000080;stroke-miterlimit:10.0;stroke-width:10.0;fill:#0000ff;" d="M 448.971,224.5918 L 450.172,279.8138 465.778,278.6138 465.778,259.4058 483.785,279.8138 493.389,270.2098 476.582,249.8018 489.788,230.5938 478.983,223.3908 464.577,244.9998 463.377,224.5918 448.971,224.5918 Z" />
		<path style="stroke-linejoin:round;fill-rule:evenodd;stroke:#008000;stroke-miterlimit:10.0;stroke-width:10.0;fill:#00ff00;" d="M 404.553,220.9898 L 404.553,277.4128 418.959,278.6138 418.959,257.0048 434.565,257.0048 432.164,244.9998 418.959,244.9998 420.159,236.5968 440.568,235.3958 440.568,223.3908 404.553,220.9898 Z" />
		<path style="stroke-linejoin:round;fill-rule:evenodd;stroke:#7f8000;stroke-miterlimit:10.0;stroke-width:10.0;fill:#ffff00;" d="M 378.142,222.1908 L 380.543,275.0118 396.149,275.0118 392.548,220.9898 378.142,222.1908 Z" />
		<path style="stroke-linejoin:round;fill-rule:evenodd;stroke:#800000;stroke-miterlimit:10.0;stroke-width:10.0;fill:#ff0000;" d="M 315.717,277.4128 L 319.318,216.1878 338.526,216.1878 352.932,248.6008 352.932,218.5888 369.739,217.3888 366.137,277.4128 350.531,276.2128 333.724,241.3978 332.524,278.6138 315.717,277.4128 Z" />
	</g>
	<g>
		<path style="fill-rule:evenodd;fill:#ff00ff;" d="M 498.996,221.3858 L 515.802,221.3858 517.003,276.6088 501.397,276.6088 498.996,221.3858 Z" />
		<path style="fill-rule:evenodd;fill:#0000ff;" d="M 449.775,221.3858 L 450.976,276.6088 466.582,275.4078 466.582,256.1998 484.59,276.6088 494.194,267.0048 477.387,246.5958 490.592,227.3888 479.788,220.1858 465.382,241.7948 464.181,221.3858 449.775,221.3858 Z" />
		<path style="fill-rule:evenodd;fill:#00ff00;" d="M 405.357,217.7848 L 405.357,274.2078 419.763,275.4078 419.763,253.7988 435.37,253.7988 432.969,241.7948 419.763,241.7948 420.964,233.3908 441.372,232.1908 441.372,220.1858 405.357,217.7848 Z" />
		<path style="fill-rule:evenodd;fill:#ffff00;" d="M 378.947,218.9848 L 381.348,271.8068 396.954,271.8068 393.352,217.7848 378.947,218.9848 Z" />
		<path style="fill-rule:evenodd;fill:#ff0000;" d="M 316.521,274.2078 L 320.123,212.9828 339.33,212.9828 353.736,245.3958 353.736,215.3838 370.543,214.1828 366.942,274.2078 351.335,273.0068 334.528,238.1928 333.328,275.4078 316.521,274.2078 Z" />
	</g>
	<path style="stroke-linejoin:round;fill-rule:evenodd;stroke:#7f0080;stroke-miterlimit:10.0;stroke-width:7.0;fill:#ff00ff;" d="M 520.196,338.6458 L 537.003,338.6458 538.203,393.8688 522.597,393.8688 520.196,338.6458 Z" />
	<path style="stroke-linejoin:round;fill-rule:evenodd;stroke:#000080;stroke-miterlimit:10.0;stroke-width:7.0;fill:#0000ff;" d="M 470.976,338.6458 L 472.176,393.8688 487.783,392.6678 487.783,373.4598 505.79,393.8688 515.394,384.2648 498.587,363.8568 511.792,344.6488 500.988,337.4458 486.582,359.0548 485.382,338.6458 470.976,338.6458 Z" />
	<path style="stroke-linejoin:round;fill-rule:evenodd;stroke:#008000;stroke-miterlimit:10.0;stroke-width:7.0;fill:#00ff00;" d="M 426.558,335.0448 L 426.558,391.4678 440.964,392.6678 440.964,371.0598 456.57,371.0598 454.169,359.0548 440.964,359.0548 442.164,350.6508 462.572,349.4508 462.572,337.4458 426.558,335.0448 Z" />
	<path style="stroke-linejoin:round;fill-rule:evenodd;stroke:#7f8000;stroke-miterlimit:10.0;stroke-width:7.0;fill:#ffff00;" d="M 400.147,336.2448 L 402.548,389.0668 418.154,389.0668 414.553,335.0448 400.147,336.2448 Z" />
	<path style="stroke-linejoin:round;fill-rule:evenodd;stroke:#800000;stroke-miterlimit:10.0;stroke-width:7.0;fill:#ff0000;" d="M 337.722,391.4678 L 341.323,330.2428 360.531,330.2428 374.937,362.6558 374.937,332.6438 391.744,331.4428 388.142,391.4678 372.536,390.2668 355.729,355.4528 354.528,392.6678 337.722,391.4678 Z" />
	<g>
		<path style="fill-rule:evenodd;fill:#ff00ff;" d="M 521.0,336.6408 L 537.807,336.6408 539.008,391.8638 523.401,391.8638 521.0,336.6408 Z" />
		<path style="fill-rule:evenodd;fill:#0000ff;" d="M 471.78,336.6408 L 472.981,391.8638 488.587,390.6628 488.587,371.4558 506.594,391.8638 516.198,382.2598 499.392,361.8518 512.597,342.6438 501.793,335.4408 487.387,357.0498 486.186,336.6408 471.78,336.6408 Z" />
		<path style="fill-rule:evenodd;fill:#00ff00;" d="M 427.362,333.0398 L 427.362,389.4628 441.768,390.6628 441.768,369.0548 457.374,369.0548 454.973,357.0498 441.768,357.0498 442.968,348.6458 463.377,347.4458 463.377,335.4408 427.362,333.0398 Z" />
		<path style="fill-rule:evenodd;fill:#ffff00;" d="M 400.951,334.2398 L 403.352,387.0618 418.959,387.0618 415.357,333.0398 400.951,334.2398 Z" />
		<path style="fill-rule:evenodd;fill:#ff0000;" d="M 338.526,389.4628 L 342.127,328.2378 361.335,328.2378 375.741,360.6508 375.741,330.6388 392.548,329.4378 388.946,389.4628 373.34,388.2618 356.533,353.4478 355.333,390.6628 338.526,389.4628 Z" />
	</g>
	<g>
		<g>
			<path style="fill:#000000;" d="M 163.0451,420.9588 C 162.2376,420.9584 161.6083,420.7302 161.1576,420.2736 160.7064,419.817 160.481,419.0951 160.481,418.1072 L 160.481,413.2588 159.481,413.2588 159.481,412.0588 160.481,412.0588 160.481,409.5588 161.981,409.5588 161.981,412.0588 164.681,412.0588 164.681,413.2588 161.981,413.2588 161.981,417.4135 C 161.981,417.8576 161.9888,418.199 162.0044,418.4385 162.0201,418.6783 162.0798,418.9025 162.1841,419.1103 162.2724,419.2939 162.4154,419.431 162.613,419.522 162.8103,419.6135 163.0783,419.6592 163.4169,419.6588 163.6564,419.6592 163.888,419.6217 164.1115,419.5463 164.3349,419.4717 164.4958,419.4092 164.5951,419.3588 L 164.681,419.3588 164.681,420.7041 C 164.4029,420.7834 164.1208,420.8451 163.8357,420.8908 163.5498,420.9357 163.2865,420.9584 163.0451,420.9588 Z" />
			<path style="fill:#000000;" d="M 172.181,420.7588 L 170.681,420.7588 170.681,415.8369 C 170.6806,415.4392 170.6615,415.0689 170.624,414.7252 170.5857,414.3822 170.5142,414.1072 170.4091,413.901 170.2923,413.6845 170.1306,413.5236 169.924,413.4174 169.7169,413.3119 169.4345,413.2588 169.0763,413.2588 168.7232,413.2588 168.3583,413.3556 167.9826,413.5494 167.606,413.7431 167.2388,413.9947 166.881,414.3041 L 166.881,420.7588 165.381,420.7588 165.381,408.5588 166.881,408.5588 166.881,413.0603 C 167.3107,412.6732 167.7357,412.376 168.156,412.1689 168.5755,411.9623 169.0189,411.8592 169.4857,411.8588 170.3302,411.8592 170.9908,412.1396 171.4669,412.7002 171.9427,413.2615 172.1806,414.074 172.181,415.1385 Z" />
			<path style="fill:#000000;" d="M 175.881,420.7588 L 174.381,420.7588 174.381,412.0588 175.881,412.0588 Z M 175.981,410.6588 L 174.281,410.6588 174.281,409.1588 175.981,409.1588 Z" />
			<path style="fill:#000000;" d="M 180.7279,420.9588 C 180.1548,420.9584 179.6189,420.8802 179.1201,420.7228 178.6208,420.5658 178.208,420.3978 177.881,420.2197 L 177.881,418.5588 177.9576,418.5588 C 178.079,418.6631 178.2224,418.7783 178.388,418.9041 178.5529,419.0306 178.7732,419.1619 179.0482,419.2978 179.2927,419.4189 179.5611,419.526 179.8537,419.6189 180.1455,419.7127 180.4494,419.7592 180.7654,419.7588 180.9943,419.7592 181.2384,419.7314 181.4982,419.676 181.7572,419.6209 181.9505,419.5513 182.0779,419.4666 182.2556,419.3463 182.3841,419.2174 182.463,419.0806 182.5415,418.9443 182.5806,418.7396 182.581,418.4666 182.5806,418.1146 182.488,417.8494 182.3029,417.6705 182.1173,417.492 181.7888,417.3424 181.3169,417.2213 181.1314,417.176 180.8892,417.1228 180.5904,417.0619 180.2912,417.0017 180.0154,416.9361 179.7638,416.865 179.1052,416.6736 178.6271,416.3763 178.3287,415.9736 178.0302,415.5713 177.881,415.0845 177.881,414.5135 177.881,413.7302 178.1751,413.092 178.7638,412.5986 179.3521,412.1056 180.1337,411.8592 181.1091,411.8588 181.5888,411.8592 182.0716,411.9189 182.5576,412.0385 183.0427,412.1584 183.4505,412.3088 183.781,412.49 L 183.781,414.0588 183.7044,414.0588 C 183.3333,413.7498 182.9201,413.5056 182.4646,413.3267 182.0087,413.1482 181.5498,413.0592 181.0873,413.0588 180.608,413.0592 180.2037,413.1615 179.8748,413.3658 179.5455,413.5709 179.381,413.881 179.381,414.2963 179.381,414.6642 179.4771,414.9385 179.6701,415.1197 179.8623,415.301 180.1716,415.4494 180.5982,415.565 180.8146,415.6224 181.0556,415.6783 181.3208,415.7322 181.5857,415.7865 181.865,415.8502 182.1591,415.9228 182.7974,416.0838 183.2775,416.3502 183.599,416.7228 183.9201,417.0959 184.0806,417.6037 184.081,418.2463 184.0806,418.6193 184.008,418.9732 183.8623,419.3072 183.7162,419.642 183.5025,419.9283 183.2216,420.1666 182.9142,420.4252 182.5677,420.6217 182.1818,420.7564 181.7958,420.8912 181.3111,420.9584 180.7279,420.9588 Z" />
		</g>
		<g>
			<path style="fill:#000000;" d="M 197.581,416.4119 C 197.5806,417.8631 197.222,418.9838 196.5044,419.7736 195.7865,420.5638 194.831,420.9584 193.6388,420.9588 192.4091,420.9584 191.4423,420.551 190.738,419.7353 190.033,418.9201 189.6806,417.8123 189.681,416.4119 189.6806,414.9717 190.0435,413.8525 190.7693,413.0549 191.4947,412.2576 192.4509,411.8592 193.6388,411.8588 194.831,411.8592 195.7865,412.2564 196.5044,413.051 197.222,413.8459 197.5806,414.9662 197.581,416.4119 Z M 196.081,416.4119 C 196.0806,415.3131 195.8693,414.4963 195.4466,413.9611 195.0236,413.4267 194.4208,413.1592 193.6388,413.1588 192.8509,413.1592 192.2447,413.4267 191.8193,413.9611 191.3935,414.4963 191.1806,415.3131 191.181,416.4119 191.1806,417.4767 191.3935,418.2842 191.8193,418.8338 192.2447,419.3842 192.8509,419.6592 193.6388,419.6588 194.4154,419.6592 195.0169,419.3892 195.4427,418.8494 195.8681,418.3099 196.0806,417.4974 196.081,416.4119 Z" />
			<path style="fill:#000000;" d="M 206.181,420.7588 L 204.681,420.7588 204.681,415.8369 C 204.6806,415.4392 204.6615,415.0689 204.624,414.7252 204.5857,414.3822 204.5142,414.1072 204.4091,413.901 204.2923,413.6845 204.1306,413.5236 203.924,413.4174 203.7169,413.3119 203.4345,413.2588 203.0763,413.2588 202.7232,413.2588 202.3583,413.3556 201.9826,413.5494 201.606,413.7431 201.2388,413.9947 200.881,414.3041 L 200.881,420.7588 199.381,420.7588 199.381,412.0588 200.881,412.0588 200.881,413.0603 C 201.3107,412.6732 201.7357,412.376 202.156,412.1689 202.5755,411.9623 203.0189,411.8592 203.4857,411.8588 204.3302,411.8592 204.9908,412.1396 205.4669,412.7002 205.9427,413.2615 206.1806,414.074 206.181,415.1385 Z" />
			<path style="fill:#000000;" d="M 212.0873,420.9588 C 210.6912,420.9584 209.608,420.5701 208.8373,419.7924 208.0662,419.015 207.6806,417.9103 207.681,416.4791 207.6806,415.0677 208.056,413.9451 208.8076,413.1103 209.5583,412.2763 210.5404,411.8592 211.7529,411.8588 212.2986,411.8592 212.7814,411.9361 213.2021,412.09 213.622,412.2443 213.9896,412.4861 214.3044,412.815 214.6189,413.1455 214.8603,413.5482 215.0287,414.0236 215.1966,414.4994 215.2806,415.0818 215.281,415.7713 L 215.281,416.5588 209.181,416.5588 C 209.1806,417.5642 209.4365,418.3322 209.949,418.8627 210.4607,419.3935 211.1685,419.6592 212.0716,419.6588 212.3955,419.6592 212.7126,419.6244 213.024,419.5549 213.3345,419.4857 213.6158,419.397 213.8669,419.2885 214.1326,419.1752 214.3568,419.065 214.5404,418.9588 214.7232,418.8525 214.8748,418.7525 214.9951,418.6588 L 215.081,418.6588 215.081,420.2244 C 214.908,420.2924 214.6935,420.3771 214.438,420.4783 214.1822,420.5802 213.9521,420.6595 213.7482,420.7166 213.4603,420.7947 213.2005,420.8545 212.9685,420.8963 212.7361,420.9377 212.4423,420.9584 212.0873,420.9588 Z M 213.781,415.4588 C 213.7701,415.0666 213.7236,414.7283 213.6412,414.4439 213.558,414.1603 213.4384,413.9205 213.2826,413.7244 213.1115,413.508 212.8923,413.3427 212.6255,413.2291 212.358,413.1158 212.0271,413.0592 211.6326,413.0588 211.2439,413.0592 210.913,413.117 210.6404,413.233 210.3669,413.3494 210.1193,413.5185 209.8966,413.74 209.6787,413.9674 209.5126,414.2189 209.399,414.4947 209.2845,414.7709 209.2119,415.0924 209.181,415.4588 Z" />
		</g>
	</g>
	<path style="stroke:#000000;stroke-miterlimit:10.0;fill:none;" d="M 208.501,403.2378 L 290.135,387.6318" />
</g>
</svg>